<svg xmlns="http://www.w3.org/2000/svg" xmlns:xlink="http://www.w3.org/1999/xlink" version="1.1" id="Layer_1" x="0" y="0" viewBox="0 0 137.7 149.3" xml:space="preserve" enable-background="new 0 0 137.7 149.3"><style type="text/css">
	.electron-st0{fill:#47848F;}
</style><g transform="translate(-1.000000, -1.000000)"><g transform="translate(0.699997, 0.400002)"><path class="electron-st0" d="M48.9 32.7C29.4 29.1 14 32.8 7.8 43.5 3.2 51.4 4.5 62 11 73.2c0.5 1 1.8 1.3 2.7 0.7 1-0.5 1.3-1.8 0.7-2.7C8.6 61.1 7.5 52 11.3 45.5c5.1-8.8 18.9-12.2 36.9-8.9 1.1 0.2 2.1-0.5 2.3-1.6S50 32.9 48.9 32.7L48.9 32.7zM21.1 86.9c7.9 8.7 18.1 16.8 29.8 23.5 28.3 16.3 58.4 20.7 73.3 10.6 0.9-0.6 1.1-1.9 0.5-2.8 -0.6-0.9-1.9-1.1-2.8-0.5 -13.3 9.1-41.9 4.9-69-10.7 -11.3-6.5-21.3-14.4-28.9-22.8 -0.7-0.8-2-0.9-2.8-0.1C20.4 84.8 20.4 86.1 21.1 86.9L21.1 86.9z"/><path class="electron-st0" d="M119.5 84.5c12.8-15.1 17.2-30.3 11.1-40.9 -4.5-7.8-14.1-11.9-26.7-12.1 -1.1 0-2 0.9-2 2 0 1.1 0.9 2 2 2 11.4 0.1 19.6 3.7 23.3 10.1 5.1 8.8 1.1 22.4-10.7 36.3 -0.7 0.8-0.6 2.1 0.2 2.8C117.5 85.4 118.8 85.3 119.5 84.5L119.5 84.5zM86.6 33.3C75.1 35.8 62.8 40.7 51 47.5 21.8 64.3 2.7 89.2 5.4 107.2c0.2 1.1 1.2 1.8 2.3 1.7 1.1-0.2 1.8-1.2 1.7-2.3C7 90.6 25.1 67.1 53 50.9c11.5-6.6 23.4-11.3 34.5-13.7 1.1-0.2 1.8-1.3 1.5-2.4C88.8 33.8 87.7 33.1 86.6 33.3L86.6 33.3z"/><path class="electron-st0" d="M39.3 119.7c6.7 18.6 17.6 30.1 29.9 30.1 9 0 17.2-6.1 23.7-16.9 0.6-0.9 0.3-2.2-0.7-2.7 -0.9-0.6-2.2-0.3-2.7 0.7 -5.8 9.7-12.9 14.9-20.3 14.9 -10.2 0-19.9-10.2-26.1-27.5 -0.4-1-1.5-1.6-2.6-1.2C39.5 117.5 39 118.7 39.3 119.7L39.3 119.7zM100.3 116.1c3.5-11 5.3-23.8 5.3-37.1 0-33.1-11.6-61.7-28.1-69 -1-0.4-2.2 0-2.6 1 -0.4 1 0 2.2 1 2.6 14.7 6.5 25.7 33.6 25.7 65.4 0 12.9-1.8 25.2-5.1 35.9 -0.3 1.1 0.3 2.2 1.3 2.5C98.9 117.7 100 117.1 100.3 116.1L100.3 116.1z"/><path class="electron-st0" d="M138 114.1c0-5.3-4.3-9.6-9.6-9.6 -5.3 0-9.6 4.3-9.6 9.6s4.3 9.6 9.6 9.6C133.7 123.7 138 119.4 138 114.1L138 114.1zM134 114.1c0 3.1-2.5 5.6-5.6 5.6 -3.1 0-5.6-2.5-5.6-5.6s2.5-5.6 5.6-5.6C131.5 108.5 134 111 134 114.1L134 114.1z"/><path class="electron-st0" d="M9.9 123.7c5.3 0 9.6-4.3 9.6-9.6s-4.3-9.6-9.6-9.6 -9.6 4.3-9.6 9.6S4.6 123.7 9.9 123.7L9.9 123.7zM9.9 119.7c-3.1 0-5.6-2.5-5.6-5.6s2.5-5.6 5.6-5.6 5.6 2.5 5.6 5.6S12.9 119.7 9.9 119.7L9.9 119.7z"/><path class="electron-st0" d="M69.2 19.7c5.3 0 9.6-4.3 9.6-9.6s-4.3-9.6-9.6-9.6 -9.6 4.3-9.6 9.6S63.9 19.7 69.2 19.7L69.2 19.7zM69.2 15.7c-3.1 0-5.6-2.5-5.6-5.6s2.5-5.6 5.6-5.6c3.1 0 5.6 2.5 5.6 5.6S72.3 15.7 69.2 15.7L69.2 15.7z"/><path class="electron-st0" d="M70.7 85.8c-3.7 0.8-7.4-1.6-8.2-5.3 -0.8-3.7 1.6-7.4 5.3-8.2 3.7-0.8 7.4 1.6 8.2 5.3C76.8 81.3 74.4 85 70.7 85.8z"/></g></g></svg>
